{
  "version": "1.1.6",
  "modules": [
    {
      "id": 1,
      "plugin": "Core",
      "version": "1.1.6",
      "model": "AudioInterface",
      "params": [],
      "leftModuleId": 2,
      "data": {
        "audio": {
          "driver": 4,
          "deviceName": "system",
          "offset": 0,
          "maxChannels": 8,
          "sampleRate": 44100,
          "blockSize": 512
        }
      },
      "pos": [
        68,
        0
      ]
    },
    {
      "id": 2,
      "plugin": "Fundamental",
      "version": "1.4.0",
      "model": "VCMixer",
      "params": [
        {
          "id": 0,
          "value": 1.0
        },
        {
          "id": 1,
          "value": 1.22753656
        },
        {
          "id": 2,
          "value": 1.41421354
        },
        {
          "id": 3,
          "value": 1.0
        },
        {
          "id": 4,
          "value": 1.0
        }
      ],
      "leftModuleId": 19,
      "rightModuleId": 1,
      "pos": [
        58,
        0
      ]
    },
    {
      "id": 5,
      "plugin": "Core",
      "version": "1.1.6",
      "model": "MIDIToCVInterface",
      "params": [],
      "data": {
        "channels": 1,
        "polyMode": 0,
        "clockDivision": 24,
        "lastPitch": 8192,
        "lastMod": 0,
        "midi": {
          "driver": -11,
          "deviceName": "QWERTY keyboard (US)",
          "channel": -1
        }
      },
      "pos": [
        0,
        0
      ]
    },
    {
      "id": 18,
      "plugin": "AudibleInstruments",
      "version": "1.3.1",
      "model": "Marbles",
      "params": [
        {
          "id": 0,
          "value": 0.0
        },
        {
          "id": 1,
          "value": 0.0
        },
        {
          "id": 2,
          "value": 0.442999512
        },
        {
          "id": 3,
          "value": 0.233999774
        },
        {
          "id": 4,
          "value": 0.738500178
        },
        {
          "id": 5,
          "value": 0.0
        },
        {
          "id": 6,
          "value": 0.0
        },
        {
          "id": 7,
          "value": 0.41250059
        },
        {
          "id": 8,
          "value": 0.555499911
        },
        {
          "id": 9,
          "value": 0.471499354
        },
        {
          "id": 10,
          "value": 0.0
        },
        {
          "id": 11,
          "value": 0.0
        },
        {
          "id": 12,
          "value": 0.0
        },
        {
          "id": 13,
          "value": 0.076500006
        },
        {
          "id": 14,
          "value": 0.527501345
        }
      ],
      "rightModuleId": 19,
      "data": {
        "t_deja_vu": false,
        "x_deja_vu": false,
        "t_mode": 0,
        "x_mode": 0,
        "t_range": 1,
        "x_range": 0,
        "external": false,
        "x_scale": 0,
        "y_divider_index": 8,
        "x_clock_source_internal": 0
      },
      "pos": [
        28,
        0
      ]
    },
    {
      "id": 19,
      "plugin": "AudibleInstruments",
      "version": "1.3.1",
      "model": "Plaits",
      "params": [
        {
          "id": 0,
          "value": 0.0
        },
        {
          "id": 1,
          "value": 0.0
        },
        {
          "id": 2,
          "value": -0.268000841
        },
        {
          "id": 3,
          "value": 0.0
        },
        {
          "id": 4,
          "value": 0.66900605
        },
        {
          "id": 5,
          "value": 0.345000267
        },
        {
          "id": 6,
          "value": -0.0129992682
        },
        {
          "id": 7,
          "value": -1.0
        },
        {
          "id": 8,
          "value": 3.47848982e-7
        },
        {
          "id": 9,
          "value": 0.5
        },
        {
          "id": 10,
          "value": 0.5
        }
      ],
      "leftModuleId": 18,
      "rightModuleId": 2,
      "data": {
        "lowCpu": false,
        "model": 6
      },
      "pos": [
        46,
        0
      ]
    }
  ],
  "cables": [
    {
      "id": 89,
      "outputModuleId": 2,
      "outputId": 0,
      "inputModuleId": 1,
      "inputId": 0,
      "color": "#0986ad"
    },
    {
      "id": 90,
      "outputModuleId": 2,
      "outputId": 0,
      "inputModuleId": 1,
      "inputId": 1,
      "color": "#c9b70e"
    },
    {
      "id": 216,
      "outputModuleId": 19,
      "outputId": 0,
      "inputModuleId": 2,
      "inputId": 1,
      "color": "#0c8e15"
    },
    {
      "id": 229,
      "outputModuleId": 18,
      "outputId": 5,
      "inputModuleId": 18,
      "inputId": 0,
      "color": "#0c8e15"
    },
    {
      "id": 233,
      "outputModuleId": 18,
      "outputId": 0,
      "inputModuleId": 18,
      "inputId": 5,
      "color": "#0c8e15"
    },
    {
      "id": 234,
      "outputModuleId": 18,
      "outputId": 1,
      "inputModuleId": 18,
      "inputId": 4,
      "color": "#c91847"
    },
    {
      "id": 237,
      "outputModuleId": 18,
      "outputId": 6,
      "inputModuleId": 19,
      "inputId": 1,
      "color": "#0986ad"
    },
    {
      "id": 240,
      "outputModuleId": 18,
      "outputId": 3,
      "inputModuleId": 19,
      "inputId": 3,
      "color": "#c91847"
    },
    {
      "id": 238,
      "outputModuleId": 18,
      "outputId": 6,
      "inputModuleId": 19,
      "inputId": 4,
      "color": "#c9b70e"
    },
    {
      "id": 242,
      "outputModuleId": 18,
      "outputId": 2,
      "inputModuleId": 19,
      "inputId": 6,
      "color": "#c9b70e"
    },
    {
      "id": 244,
      "outputModuleId": 18,
      "outputId": 4,
      "inputModuleId": 18,
      "inputId": 7,
      "color": "#c91847"
    }
  ]
}