{
  "version": "1.1.6",
  "modules": [
    {
      "id": 1,
      "plugin": "Core",
      "version": "1.1.6",
      "model": "AudioInterface",
      "params": [],
      "leftModuleId": 102,
      "data": {
        "audio": {
          "driver": 4,
          "deviceName": "system",
          "offset": 0,
          "maxChannels": 8,
          "sampleRate": 44100,
          "blockSize": 512
        }
      },
      "pos": [
        119,
        1
      ]
    },
    {
      "id": 100,
      "plugin": "MindMeldModular",
      "version": "1.1.10",
      "model": "MixMasterJr",
      "params": [
        {
          "id": 0,
          "value": 1.0
        },
        {
          "id": 1,
          "value": 1.0
        },
        {
          "id": 2,
          "value": 1.0
        },
        {
          "id": 3,
          "value": 1.0
        },
        {
          "id": 4,
          "value": 1.0
        },
        {
          "id": 5,
          "value": 1.0
        },
        {
          "id": 6,
          "value": 1.0
        },
        {
          "id": 7,
          "value": 1.0
        },
        {
          "id": 8,
          "value": 1.0
        },
        {
          "id": 9,
          "value": 1.0
        },
        {
          "id": 10,
          "value": 0.5
        },
        {
          "id": 11,
          "value": 0.5
        },
        {
          "id": 12,
          "value": 0.5
        },
        {
          "id": 13,
          "value": 0.5
        },
        {
          "id": 14,
          "value": 0.5
        },
        {
          "id": 15,
          "value": 0.5
        },
        {
          "id": 16,
          "value": 0.5
        },
        {
          "id": 17,
          "value": 0.5
        },
        {
          "id": 18,
          "value": 0.5
        },
        {
          "id": 19,
          "value": 0.5
        },
        {
          "id": 20,
          "value": 0.0
        },
        {
          "id": 21,
          "value": 0.0
        },
        {
          "id": 22,
          "value": 0.0
        },
        {
          "id": 23,
          "value": 1.0
        },
        {
          "id": 24,
          "value": 0.0
        },
        {
          "id": 25,
          "value": 0.0
        },
        {
          "id": 26,
          "value": 0.0
        },
        {
          "id": 27,
          "value": 0.0
        },
        {
          "id": 28,
          "value": 0.0
        },
        {
          "id": 29,
          "value": 0.0
        },
        {
          "id": 30,
          "value": 0.0
        },
        {
          "id": 31,
          "value": 0.0
        },
        {
          "id": 32,
          "value": 0.0
        },
        {
          "id": 33,
          "value": 0.0
        },
        {
          "id": 34,
          "value": 0.0
        },
        {
          "id": 35,
          "value": 0.0
        },
        {
          "id": 36,
          "value": 0.0
        },
        {
          "id": 37,
          "value": 0.0
        },
        {
          "id": 38,
          "value": 0.0
        },
        {
          "id": 39,
          "value": 0.0
        },
        {
          "id": 40,
          "value": 0.0
        },
        {
          "id": 41,
          "value": 0.0
        },
        {
          "id": 42,
          "value": 0.0
        },
        {
          "id": 43,
          "value": 1.0
        },
        {
          "id": 44,
          "value": 0.0
        },
        {
          "id": 45,
          "value": 0.0
        },
        {
          "id": 46,
          "value": 0.0
        },
        {
          "id": 47,
          "value": 0.0
        },
        {
          "id": 48,
          "value": 0.0
        },
        {
          "id": 49,
          "value": 0.0
        },
        {
          "id": 50,
          "value": 0.0
        },
        {
          "id": 51,
          "value": 0.0
        },
        {
          "id": 52,
          "value": 13.0
        },
        {
          "id": 53,
          "value": 13.0
        },
        {
          "id": 54,
          "value": 13.0
        },
        {
          "id": 55,
          "value": 13.0
        },
        {
          "id": 56,
          "value": 13.0
        },
        {
          "id": 57,
          "value": 13.0
        },
        {
          "id": 58,
          "value": 13.0
        },
        {
          "id": 59,
          "value": 13.0
        },
        {
          "id": 60,
          "value": 20010.0
        },
        {
          "id": 61,
          "value": 20010.0
        },
        {
          "id": 62,
          "value": 20010.0
        },
        {
          "id": 63,
          "value": 20010.0
        },
        {
          "id": 64,
          "value": 20010.0
        },
        {
          "id": 65,
          "value": 20010.0
        },
        {
          "id": 66,
          "value": 20010.0
        },
        {
          "id": 67,
          "value": 20010.0
        },
        {
          "id": 68,
          "value": 13.0
        },
        {
          "id": 69,
          "value": 13.0
        },
        {
          "id": 70,
          "value": 20010.0
        },
        {
          "id": 71,
          "value": 20010.0
        }
      ],
      "leftModuleId": 103,
      "rightModuleId": 101,
      "data": {
        "trackLabels": "-01--02--03--04--05--06--07--08-GRP1GRP2",
        "panLawMono": 1,
        "panLawStereo": 1,
        "directOutsMode": 3,
        "directOutsSkipGroupedTracks": 0,
        "auxSendsMode": 3,
        "groupsControlTrackSendLevels": 0,
        "auxReturnsMutedWhenMainSolo": 0,
        "auxReturnsSolosMuteDry": 0,
        "chainMode": 1,
        "colorAndCloak": 117440512,
        "symmetricalFade": false,
        "fadeCvOutsWithVolCv": false,
        "linkBitMask": 0,
        "filterPos": 1,
        "groupedAuxReturnFeedbackProtection": 1,
        "ecoMode": 65535,
        "faders": [
          1.0,
          1.0,
          1.0,
          1.0,
          1.0,
          1.0,
          1.0,
          1.0,
          1.0,
          1.0
        ],
        "momentaryCvButtons": 1,
        "masterFaderScalesSends": 0,
        "linearVolCvInputs": 0,
        "id_t0_gainAdjust": 1.0,
        "id_t0_fadeRate": 0.0,
        "id_t0_fadeProfile": 0.0,
        "id_t0_directOutsMode": 3,
        "id_t0_auxSendsMode": 3,
        "id_t0_panLawStereo": 1,
        "id_t0_vuColorThemeLocal": 0,
        "id_t0_filterPos": 1,
        "id_t0_dispColorLocal": 0,
        "id_t0_polyStereo": 0,
        "id_t0_panCvLevel": 1.0,
        "id_t0_stereoWidth": 1.0,
        "id_t0_invertInput": 0,
        "id_t1_gainAdjust": 1.0,
        "id_t1_fadeRate": 0.0,
        "id_t1_fadeProfile": 0.0,
        "id_t1_directOutsMode": 3,
        "id_t1_auxSendsMode": 3,
        "id_t1_panLawStereo": 1,
        "id_t1_vuColorThemeLocal": 0,
        "id_t1_filterPos": 1,
        "id_t1_dispColorLocal": 0,
        "id_t1_polyStereo": 0,
        "id_t1_panCvLevel": 1.0,
        "id_t1_stereoWidth": 1.0,
        "id_t1_invertInput": 0,
        "id_t2_gainAdjust": 1.0,
        "id_t2_fadeRate": 0.0,
        "id_t2_fadeProfile": 0.0,
        "id_t2_directOutsMode": 3,
        "id_t2_auxSendsMode": 3,
        "id_t2_panLawStereo": 1,
        "id_t2_vuColorThemeLocal": 0,
        "id_t2_filterPos": 1,
        "id_t2_dispColorLocal": 0,
        "id_t2_polyStereo": 0,
        "id_t2_panCvLevel": 1.0,
        "id_t2_stereoWidth": 1.0,
        "id_t2_invertInput": 0,
        "id_t3_gainAdjust": 1.0,
        "id_t3_fadeRate": 0.0,
        "id_t3_fadeProfile": 0.0,
        "id_t3_directOutsMode": 3,
        "id_t3_auxSendsMode": 3,
        "id_t3_panLawStereo": 1,
        "id_t3_vuColorThemeLocal": 0,
        "id_t3_filterPos": 1,
        "id_t3_dispColorLocal": 0,
        "id_t3_polyStereo": 0,
        "id_t3_panCvLevel": 1.0,
        "id_t3_stereoWidth": 1.0,
        "id_t3_invertInput": 0,
        "id_t4_gainAdjust": 0.128824517,
        "id_t4_fadeRate": 0.0,
        "id_t4_fadeProfile": 0.0,
        "id_t4_directOutsMode": 3,
        "id_t4_auxSendsMode": 3,
        "id_t4_panLawStereo": 1,
        "id_t4_vuColorThemeLocal": 0,
        "id_t4_filterPos": 1,
        "id_t4_dispColorLocal": 0,
        "id_t4_polyStereo": 0,
        "id_t4_panCvLevel": 1.0,
        "id_t4_stereoWidth": 1.0,
        "id_t4_invertInput": 0,
        "id_t5_gainAdjust": 1.0,
        "id_t5_fadeRate": 0.0,
        "id_t5_fadeProfile": 0.0,
        "id_t5_directOutsMode": 3,
        "id_t5_auxSendsMode": 3,
        "id_t5_panLawStereo": 1,
        "id_t5_vuColorThemeLocal": 0,
        "id_t5_filterPos": 1,
        "id_t5_dispColorLocal": 0,
        "id_t5_polyStereo": 0,
        "id_t5_panCvLevel": 1.0,
        "id_t5_stereoWidth": 1.0,
        "id_t5_invertInput": 0,
        "id_t6_gainAdjust": 1.0,
        "id_t6_fadeRate": 0.0,
        "id_t6_fadeProfile": 0.0,
        "id_t6_directOutsMode": 3,
        "id_t6_auxSendsMode": 3,
        "id_t6_panLawStereo": 1,
        "id_t6_vuColorThemeLocal": 0,
        "id_t6_filterPos": 1,
        "id_t6_dispColorLocal": 0,
        "id_t6_polyStereo": 0,
        "id_t6_panCvLevel": 1.0,
        "id_t6_stereoWidth": 1.0,
        "id_t6_invertInput": 0,
        "id_t7_gainAdjust": 1.0,
        "id_t7_fadeRate": 0.0,
        "id_t7_fadeProfile": 0.0,
        "id_t7_directOutsMode": 3,
        "id_t7_auxSendsMode": 3,
        "id_t7_panLawStereo": 1,
        "id_t7_vuColorThemeLocal": 0,
        "id_t7_filterPos": 1,
        "id_t7_dispColorLocal": 0,
        "id_t7_polyStereo": 0,
        "id_t7_panCvLevel": 1.0,
        "id_t7_stereoWidth": 1.0,
        "id_t7_invertInput": 0,
        "id_g0_fadeRate": 0.0,
        "id_g0_fadeProfile": 0.0,
        "id_g0_directOutsMode": 3,
        "id_g0_auxSendsMode": 3,
        "id_g0_panLawStereo": 1,
        "id_g0_vuColorThemeLocal": 0,
        "id_g0_filterPos": 1,
        "id_g0_dispColorLocal": 0,
        "id_g0_panCvLevel": 1.0,
        "id_g0_stereoWidth": 1.0,
        "id_g1_fadeRate": 0.0,
        "id_g1_fadeProfile": 0.0,
        "id_g1_directOutsMode": 3,
        "id_g1_auxSendsMode": 3,
        "id_g1_panLawStereo": 1,
        "id_g1_vuColorThemeLocal": 0,
        "id_g1_filterPos": 1,
        "id_g1_dispColorLocal": 0,
        "id_g1_panCvLevel": 1.0,
        "id_g1_stereoWidth": 1.0,
        "dcBlock": false,
        "clipping": 0,
        "fadeRate": 0.0,
        "fadeProfile": 0.0,
        "vuColorThemeLocal": 0,
        "dispColorLocal": 0,
        "chainOnly": 0,
        "dimGain": 0.251190007,
        "masterLabel": "MASTER"
      },
      "pos": [
        41,
        1
      ]
    },
    {
      "id": 101,
      "plugin": "MindMeldModular",
      "version": "1.1.10",
      "model": "AuxExpanderJr",
      "params": [
        {
          "id": 0,
          "value": 0.0
        },
        {
          "id": 1,
          "value": 0.0
        },
        {
          "id": 2,
          "value": 0.0
        },
        {
          "id": 3,
          "value": 0.0
        },
        {
          "id": 4,
          "value": 0.0
        },
        {
          "id": 5,
          "value": 0.0
        },
        {
          "id": 6,
          "value": 0.0
        },
        {
          "id": 7,
          "value": 0.0
        },
        {
          "id": 8,
          "value": 0.0
        },
        {
          "id": 9,
          "value": 0.0
        },
        {
          "id": 10,
          "value": 0.0
        },
        {
          "id": 11,
          "value": 0.0
        },
        {
          "id": 12,
          "value": 0.0
        },
        {
          "id": 13,
          "value": 0.0
        },
        {
          "id": 14,
          "value": 0.0
        },
        {
          "id": 15,
          "value": 0.0
        },
        {
          "id": 16,
          "value": 0.34799999
        },
        {
          "id": 17,
          "value": 0.0
        },
        {
          "id": 18,
          "value": 0.0
        },
        {
          "id": 19,
          "value": 0.0
        },
        {
          "id": 20,
          "value": 0.0
        },
        {
          "id": 21,
          "value": 0.0
        },
        {
          "id": 22,
          "value": 0.0
        },
        {
          "id": 23,
          "value": 0.0
        },
        {
          "id": 24,
          "value": 0.0
        },
        {
          "id": 25,
          "value": 0.0
        },
        {
          "id": 26,
          "value": 0.0
        },
        {
          "id": 27,
          "value": 0.0
        },
        {
          "id": 28,
          "value": 0.0
        },
        {
          "id": 29,
          "value": 0.0
        },
        {
          "id": 30,
          "value": 0.0
        },
        {
          "id": 31,
          "value": 0.0
        },
        {
          "id": 32,
          "value": 0.0
        },
        {
          "id": 33,
          "value": 0.0
        },
        {
          "id": 34,
          "value": 0.0
        },
        {
          "id": 35,
          "value": 0.0
        },
        {
          "id": 36,
          "value": 0.0
        },
        {
          "id": 37,
          "value": 0.0
        },
        {
          "id": 38,
          "value": 0.0
        },
        {
          "id": 39,
          "value": 0.0
        },
        {
          "id": 40,
          "value": 0.0
        },
        {
          "id": 41,
          "value": 0.0
        },
        {
          "id": 42,
          "value": 0.0
        },
        {
          "id": 43,
          "value": 0.0
        },
        {
          "id": 44,
          "value": 0.0
        },
        {
          "id": 45,
          "value": 0.0
        },
        {
          "id": 46,
          "value": 0.0
        },
        {
          "id": 47,
          "value": 0.0
        },
        {
          "id": 48,
          "value": 0.0
        },
        {
          "id": 49,
          "value": 0.0
        },
        {
          "id": 50,
          "value": 0.0
        },
        {
          "id": 51,
          "value": 0.0
        },
        {
          "id": 52,
          "value": 0.0
        },
        {
          "id": 53,
          "value": 0.0
        },
        {
          "id": 54,
          "value": 0.0
        },
        {
          "id": 55,
          "value": 0.0
        },
        {
          "id": 56,
          "value": 0.0
        },
        {
          "id": 57,
          "value": 0.0
        },
        {
          "id": 58,
          "value": 0.0
        },
        {
          "id": 59,
          "value": 0.0
        },
        {
          "id": 60,
          "value": 0.0
        },
        {
          "id": 61,
          "value": 0.0
        },
        {
          "id": 62,
          "value": 1.0
        },
        {
          "id": 63,
          "value": 1.0
        },
        {
          "id": 64,
          "value": 1.0
        },
        {
          "id": 65,
          "value": 1.0
        },
        {
          "id": 66,
          "value": 0.5
        },
        {
          "id": 67,
          "value": 0.5
        },
        {
          "id": 68,
          "value": 0.5
        },
        {
          "id": 69,
          "value": 0.5
        },
        {
          "id": 70,
          "value": 1.0
        },
        {
          "id": 71,
          "value": 1.0
        },
        {
          "id": 72,
          "value": 1.0
        },
        {
          "id": 73,
          "value": 1.0
        }
      ],
      "leftModuleId": 100,
      "rightModuleId": 102,
      "data": {
        "directOutsModeLocal": 50529027,
        "panLawStereoLocal": 16843009,
        "vuColorThemeLocal": 0,
        "dispColorAuxLocal": [
          0,
          0,
          0,
          0
        ],
        "auxFadeRatesAndProfiles": [
          0.0,
          0.0,
          0.0,
          0.0,
          0.0,
          0.0,
          0.0,
          0.0
        ],
        "auxLabels": "AUXAAUXBAUXCAUXD",
        "id_x0_hpfCutoffFreq": 13.0,
        "id_x0_lpfCutoffFreq": 20010.0,
        "id_x0_stereoWidth": 1.0,
        "id_x1_hpfCutoffFreq": 13.0,
        "id_x1_lpfCutoffFreq": 20010.0,
        "id_x1_stereoWidth": 1.0,
        "id_x2_hpfCutoffFreq": 13.0,
        "id_x2_lpfCutoffFreq": 20010.0,
        "id_x2_stereoWidth": 1.0,
        "id_x3_hpfCutoffFreq": 13.0,
        "id_x3_lpfCutoffFreq": 20010.0,
        "id_x3_stereoWidth": 1.0,
        "panCvLevels": [
          1.0,
          1.0,
          1.0,
          1.0
        ]
      },
      "pos": [
        77,
        1
      ]
    },
    {
      "id": 102,
      "plugin": "Valley",
      "version": "1.1.1",
      "model": "Plateau",
      "params": [
        {
          "id": 0,
          "value": 1.0
        },
        {
          "id": 1,
          "value": 0.5
        },
        {
          "id": 2,
          "value": 0.0
        },
        {
          "id": 3,
          "value": 10.0
        },
        {
          "id": 4,
          "value": 10.0
        },
        {
          "id": 5,
          "value": 0.5
        },
        {
          "id": 6,
          "value": 10.0
        },
        {
          "id": 7,
          "value": 0.549950004
        },
        {
          "id": 8,
          "value": 10.0
        },
        {
          "id": 9,
          "value": 10.0
        },
        {
          "id": 10,
          "value": 0.0
        },
        {
          "id": 11,
          "value": 0.5
        },
        {
          "id": 12,
          "value": 0.5
        },
        {
          "id": 13,
          "value": 0.0
        },
        {
          "id": 14,
          "value": 0.0
        },
        {
          "id": 15,
          "value": 0.0
        },
        {
          "id": 16,
          "value": 0.0
        },
        {
          "id": 17,
          "value": 0.0
        },
        {
          "id": 18,
          "value": 0.0
        },
        {
          "id": 19,
          "value": 0.0
        },
        {
          "id": 20,
          "value": 0.0
        },
        {
          "id": 21,
          "value": 0.0
        },
        {
          "id": 22,
          "value": 0.0
        },
        {
          "id": 23,
          "value": 0.0
        },
        {
          "id": 24,
          "value": 0.0
        },
        {
          "id": 25,
          "value": 0.0
        },
        {
          "id": 26,
          "value": 0.0
        },
        {
          "id": 27,
          "value": 0.0
        },
        {
          "id": 28,
          "value": 0.0
        },
        {
          "id": 29,
          "value": 0.0
        },
        {
          "id": 30,
          "value": 1.0
        }
      ],
      "leftModuleId": 101,
      "rightModuleId": 1,
      "data": {
        "frozen": false,
        "freezeToggle": false,
        "panelStyle": 0,
        "tuned": 0,
        "diffuseInput": 1,
        "preDelayCVSens": 0,
        "inputSensitivity": 0,
        "outputSaturation": 0
      },
      "pos": [
        107,
        1
      ]
    },
    {
      "id": 103,
      "plugin": "ImpromptuModular",
      "version": "1.1.9",
      "model": "Clocked",
      "params": [
        {
          "id": 0,
          "value": 106.0
        },
        {
          "id": 1,
          "value": 2.0
        },
        {
          "id": 2,
          "value": 5.0
        },
        {
          "id": 3,
          "value": -0.0
        },
        {
          "id": 4,
          "value": 0.0
        },
        {
          "id": 5,
          "value": 0.0
        },
        {
          "id": 6,
          "value": 0.0
        },
        {
          "id": 7,
          "value": 0.0
        },
        {
          "id": 8,
          "value": 0.5
        },
        {
          "id": 9,
          "value": 0.5
        },
        {
          "id": 10,
          "value": 0.5
        },
        {
          "id": 11,
          "value": 0.5
        },
        {
          "id": 12,
          "value": 0.0
        },
        {
          "id": 13,
          "value": 0.0
        },
        {
          "id": 14,
          "value": 0.0
        },
        {
          "id": 15,
          "value": 0.0
        },
        {
          "id": 16,
          "value": 0.0
        },
        {
          "id": 17,
          "value": 0.0
        },
        {
          "id": 18,
          "value": 0.0
        },
        {
          "id": 19,
          "value": 0.0
        }
      ],
      "rightModuleId": 100,
      "data": {
        "panelTheme": 0,
        "running": true,
        "displayDelayNoteMode": true,
        "bpmDetectionMode": false,
        "resetOnStartStop": 0,
        "ppqn": 4,
        "resetClockOutputsHigh": true,
        "momentaryRunInput": true,
        "clockMaster": false
      },
      "pos": [
        21,
        1
      ]
    },
    {
      "id": 395,
      "plugin": "ModularFungi",
      "version": "1.1.4",
      "model": "Opsylloscope",
      "params": [
        {
          "id": 0,
          "value": 0.0
        },
        {
          "id": 1,
          "value": 0.0
        },
        {
          "id": 2,
          "value": 0.0
        },
        {
          "id": 3,
          "value": 0.0
        },
        {
          "id": 4,
          "value": 14.0
        },
        {
          "id": 5,
          "value": 0.0
        },
        {
          "id": 6,
          "value": 0.0
        },
        {
          "id": 7,
          "value": 0.0
        },
        {
          "id": 8,
          "value": 0.0
        },
        {
          "id": 9,
          "value": 3.0
        },
        {
          "id": 10,
          "value": 1.0
        },
        {
          "id": 11,
          "value": 0.0
        },
        {
          "id": 12,
          "value": 1.5
        },
        {
          "id": 13,
          "value": 1.0
        },
        {
          "id": 14,
          "value": 1.0
        },
        {
          "id": 15,
          "value": 2.0
        },
        {
          "id": 16,
          "value": 0.0
        },
        {
          "id": 17,
          "value": 0.0
        },
        {
          "id": 18,
          "value": 0.0
        },
        {
          "id": 19,
          "value": 1.0
        }
      ],
      "data": {
        "WidgetWidth": 1605.0,
        "bufferSize": 512
      },
      "pos": [
        21,
        0
      ]
    },
    {
      "id": 396,
      "plugin": "ModularFungi",
      "version": "1.1.4",
      "model": "LightsOff",
      "params": [
        {
          "id": 0,
          "value": 0.800000012
        }
      ],
      "pos": [
        128,
        0
      ]
    },
    {
      "id": 397,
      "plugin": "JW-Modules",
      "version": "1.0.14",
      "model": "Quantizer",
      "params": [
        {
          "id": 0,
          "value": 0.0
        },
        {
          "id": 1,
          "value": 14.0
        }
      ],
      "leftModuleId": 463,
      "rightModuleId": 398,
      "data": {},
      "pos": [
        51,
        2
      ]
    },
    {
      "id": 398,
      "plugin": "AudibleInstruments",
      "version": "1.3.1",
      "model": "Plaits",
      "params": [
        {
          "id": 0,
          "value": 0.0
        },
        {
          "id": 1,
          "value": 0.0
        },
        {
          "id": 2,
          "value": 2.0
        },
        {
          "id": 3,
          "value": 0.642499864
        },
        {
          "id": 4,
          "value": 0.769999921
        },
        {
          "id": 5,
          "value": 0.384499848
        },
        {
          "id": 6,
          "value": 0.0
        },
        {
          "id": 7,
          "value": 0.0
        },
        {
          "id": 8,
          "value": -0.243000045
        },
        {
          "id": 9,
          "value": 0.5
        },
        {
          "id": 10,
          "value": 0.5
        }
      ],
      "leftModuleId": 397,
      "data": {
        "lowCpu": false,
        "model": 3
      },
      "pos": [
        55,
        2
      ]
    },
    {
      "id": 399,
      "plugin": "Grayscale",
      "version": "1.0.1",
      "model": "Permutation18",
      "params": [
        {
          "id": 0,
          "value": 0.0
        },
        {
          "id": 1,
          "value": 0.0
        },
        {
          "id": 2,
          "value": 0.0
        },
        {
          "id": 3,
          "value": 0.0
        },
        {
          "id": 4,
          "value": 1.0
        },
        {
          "id": 5,
          "value": 16.0
        },
        {
          "id": 6,
          "value": -2.0
        }
      ],
      "rightModuleId": 463,
      "data": {
        "bits": [
          false,
          false,
          false,
          false,
          false,
          true,
          false,
          true,
          false,
          false,
          false,
          true,
          true,
          false,
          false,
          false
        ]
      },
      "pos": [
        27,
        2
      ]
    },
    {
      "id": 400,
      "plugin": "VultModulesFree",
      "version": "1.12",
      "model": "Caudal",
      "params": [
        {
          "id": 0,
          "value": -0.569999754
        },
        {
          "id": 1,
          "value": 0.0
        },
        {
          "id": 2,
          "value": 0.0
        },
        {
          "id": 3,
          "value": 0.0
        },
        {
          "id": 4,
          "value": 0.0
        },
        {
          "id": 5,
          "value": 0.0
        },
        {
          "id": 6,
          "value": 0.0
        },
        {
          "id": 7,
          "value": 0.0
        },
        {
          "id": 8,
          "value": 0.0
        }
      ],
      "rightModuleId": 411,
      "data": {
        "phi1": -4.255795,
        "phi2": -0.77762419,
        "phi3": -1.90595984,
        "phi4": 3.90111375,
        "w1": -7.60202169,
        "w2": 1.06385887,
        "w3": 5.53352976,
        "w4": -11.9172754,
        "dx1": -4.1581831,
        "dy1": -2.26441669,
        "dx2": -20.8953075,
        "dy2": 6.84255838,
        "dx3": -11.2793961,
        "dy3": -4.57764721,
        "dx4": 1.44557881,
        "dy4": 12.7705088,
        "store_phi1": -4.255795,
        "store_phi2": -0.77762419,
        "store_phi3": -1.90595984,
        "store_phi4": 3.90111375,
        "store_w1": -7.60202169,
        "store_w2": 1.06385887,
        "store_w3": 5.53352976,
        "store_w4": -11.9172754,
        "store_dx1": -4.1581831,
        "store_dy1": -2.26441669,
        "store_dx2": -20.8953075,
        "store_dy2": 6.84255838,
        "store_dx3": -11.2793961,
        "store_dy3": -4.57764721,
        "store_dx4": 1.44557881,
        "store_dy4": 12.7705088,
        "model": 0
      },
      "pos": [
        69,
        2
      ]
    },
    {
      "id": 401,
      "plugin": "AudibleInstruments",
      "version": "1.3.1",
      "model": "Shades",
      "params": [
        {
          "id": 0,
          "value": 0.561500072
        },
        {
          "id": 1,
          "value": 0.5
        },
        {
          "id": 2,
          "value": 0.5
        },
        {
          "id": 3,
          "value": 1.0
        },
        {
          "id": 4,
          "value": 1.0
        },
        {
          "id": 5,
          "value": 1.0
        }
      ],
      "rightModuleId": 407,
      "pos": [
        0,
        3
      ]
    },
    {
      "id": 407,
      "plugin": "VultModulesFree",
      "version": "1.12",
      "model": "Trummor2",
      "params": [
        {
          "id": 0,
          "value": 0.0500000007
        },
        {
          "id": 1,
          "value": 0.5
        },
        {
          "id": 2,
          "value": 0.0
        },
        {
          "id": 3,
          "value": 0.0
        },
        {
          "id": 4,
          "value": 0.0
        },
        {
          "id": 5,
          "value": 0.0
        },
        {
          "id": 6,
          "value": 0.0
        },
        {
          "id": 7,
          "value": 0.200000003
        },
        {
          "id": 8,
          "value": 0.400000006
        },
        {
          "id": 9,
          "value": 0.0
        },
        {
          "id": 10,
          "value": 0.0
        },
        {
          "id": 11,
          "value": 0.699999988
        },
        {
          "id": 12,
          "value": 0.100000001
        },
        {
          "id": 13,
          "value": 0.0
        },
        {
          "id": 14,
          "value": 0.0
        },
        {
          "id": 15,
          "value": 0.949999988
        },
        {
          "id": 16,
          "value": 0.0
        },
        {
          "id": 17,
          "value": 0.0
        },
        {
          "id": 18,
          "value": 0.0
        },
        {
          "id": 19,
          "value": 0.0500000007
        },
        {
          "id": 20,
          "value": 0.0500000007
        },
        {
          "id": 21,
          "value": 0.0
        },
        {
          "id": 22,
          "value": 0.0
        },
        {
          "id": 23,
          "value": 0.100000001
        },
        {
          "id": 24,
          "value": 0.0
        },
        {
          "id": 25,
          "value": 0.0
        },
        {
          "id": 26,
          "value": 0.0
        },
        {
          "id": 27,
          "value": 0.0
        },
        {
          "id": 28,
          "value": 0.0
        },
        {
          "id": 29,
          "value": 0.0
        },
        {
          "id": 30,
          "value": 0.0
        },
        {
          "id": 31,
          "value": 0.0
        },
        {
          "id": 32,
          "value": 0.0
        }
      ],
      "leftModuleId": 401,
      "data": {
        "mod_a": 0,
        "mod_b": 0,
        "mod_c": 0,
        "mod_d": 0,
        "mk2": true
      },
      "pos": [
        6,
        3
      ]
    },
    {
      "id": 411,
      "plugin": "Bogaudio",
      "version": "1.1.34",
      "model": "Bogaudio-AddrSeq",
      "params": [
        {
          "id": 0,
          "value": 8.0
        },
        {
          "id": 1,
          "value": 1.0
        },
        {
          "id": 2,
          "value": 7.0
        },
        {
          "id": 3,
          "value": -0.499213457
        },
        {
          "id": 4,
          "value": -0.56123507
        },
        {
          "id": 5,
          "value": -0.59410882
        },
        {
          "id": 6,
          "value": -0.185207725
        },
        {
          "id": 7,
          "value": 0.260801673
        },
        {
          "id": 8,
          "value": -0.876032352
        },
        {
          "id": 9,
          "value": 0.543888092
        },
        {
          "id": 10,
          "value": -0.0652353764
        }
      ],
      "leftModuleId": 400,
      "rightModuleId": 414,
      "data": {
        "poly_input": 0,
        "select_on_clock": false,
        "triggered_select": false,
        "reverse_on_negative_clock": false,
        "range_offset": 0.0,
        "range_scale": 1.0
      },
      "pos": [
        79,
        2
      ]
    },
    {
      "id": 413,
      "plugin": "AudibleInstruments",
      "version": "1.3.1",
      "model": "Plaits",
      "params": [
        {
          "id": 0,
          "value": 0.0
        },
        {
          "id": 1,
          "value": 0.0
        },
        {
          "id": 2,
          "value": 1.0
        },
        {
          "id": 3,
          "value": 0.1190001
        },
        {
          "id": 4,
          "value": 0.69950062
        },
        {
          "id": 5,
          "value": 0.5
        },
        {
          "id": 6,
          "value": 0.0
        },
        {
          "id": 7,
          "value": 0.0
        },
        {
          "id": 8,
          "value": 0.0
        },
        {
          "id": 9,
          "value": 0.5
        },
        {
          "id": 10,
          "value": 0.5
        }
      ],
      "leftModuleId": 414,
      "rightModuleId": 466,
      "data": {
        "lowCpu": false,
        "model": 3
      },
      "pos": [
        89,
        2
      ]
    },
    {
      "id": 414,
      "plugin": "JW-Modules",
      "version": "1.0.14",
      "model": "Quantizer",
      "params": [
        {
          "id": 0,
          "value": 0.0
        },
        {
          "id": 1,
          "value": 14.0
        }
      ],
      "leftModuleId": 411,
      "rightModuleId": 413,
      "data": {},
      "pos": [
        85,
        2
      ]
    },
    {
      "id": 463,
      "plugin": "Grayscale",
      "version": "1.0.1",
      "model": "Variant",
      "params": [
        {
          "id": 0,
          "value": 0.923060834
        },
        {
          "id": 1,
          "value": 0.877347708
        },
        {
          "id": 2,
          "value": 0.989902973
        },
        {
          "id": 3,
          "value": 0.615817428
        },
        {
          "id": 4,
          "value": 0.652800679
        },
        {
          "id": 5,
          "value": 0.92431277
        },
        {
          "id": 6,
          "value": 0.322400928
        },
        {
          "id": 7,
          "value": 0.940480649
        },
        {
          "id": 8,
          "value": 0.671081841
        },
        {
          "id": 9,
          "value": 0.5884462
        }
      ],
      "leftModuleId": 399,
      "rightModuleId": 397,
      "pos": [
        45,
        2
      ]
    },
    {
      "id": 466,
      "plugin": "AudibleInstruments",
      "version": "1.3.1",
      "model": "Plaits",
      "params": [
        {
          "id": 0,
          "value": 0.0
        },
        {
          "id": 1,
          "value": 0.0
        },
        {
          "id": 2,
          "value": 4.0
        },
        {
          "id": 3,
          "value": 0.500500262
        },
        {
          "id": 4,
          "value": 0.0
        },
        {
          "id": 5,
          "value": 0.0
        },
        {
          "id": 6,
          "value": -0.660999715
        },
        {
          "id": 7,
          "value": 0.0
        },
        {
          "id": 8,
          "value": 0.399000168
        },
        {
          "id": 9,
          "value": 0.238534331
        },
        {
          "id": 10,
          "value": 0.242854476
        }
      ],
      "leftModuleId": 413,
      "rightModuleId": 469,
      "data": {
        "lowCpu": false,
        "model": 15
      },
      "pos": [
        101,
        2
      ]
    },
    {
      "id": 469,
      "plugin": "Valley",
      "version": "1.1.1",
      "model": "Plateau",
      "params": [
        {
          "id": 0,
          "value": 1.0
        },
        {
          "id": 1,
          "value": 0.5
        },
        {
          "id": 2,
          "value": 0.0
        },
        {
          "id": 3,
          "value": 10.0
        },
        {
          "id": 4,
          "value": 10.0
        },
        {
          "id": 5,
          "value": 0.731000304
        },
        {
          "id": 6,
          "value": 10.0
        },
        {
          "id": 7,
          "value": 0.90900898
        },
        {
          "id": 8,
          "value": 10.0
        },
        {
          "id": 9,
          "value": 10.0
        },
        {
          "id": 10,
          "value": 0.396000057
        },
        {
          "id": 11,
          "value": 0.5
        },
        {
          "id": 12,
          "value": 0.5
        },
        {
          "id": 13,
          "value": 0.0
        },
        {
          "id": 14,
          "value": 0.0
        },
        {
          "id": 15,
          "value": 0.0
        },
        {
          "id": 16,
          "value": 0.0
        },
        {
          "id": 17,
          "value": 0.0
        },
        {
          "id": 18,
          "value": 0.0
        },
        {
          "id": 19,
          "value": 0.0
        },
        {
          "id": 20,
          "value": 0.0
        },
        {
          "id": 21,
          "value": 0.0
        },
        {
          "id": 22,
          "value": 0.0
        },
        {
          "id": 23,
          "value": 0.0
        },
        {
          "id": 24,
          "value": 0.0
        },
        {
          "id": 25,
          "value": 0.0
        },
        {
          "id": 26,
          "value": 0.0
        },
        {
          "id": 27,
          "value": 0.0
        },
        {
          "id": 28,
          "value": 0.0
        },
        {
          "id": 29,
          "value": 0.0
        },
        {
          "id": 30,
          "value": 1.0
        }
      ],
      "leftModuleId": 466,
      "rightModuleId": 470,
      "data": {
        "frozen": false,
        "freezeToggle": false,
        "panelStyle": 0,
        "tuned": 0,
        "diffuseInput": 1,
        "preDelayCVSens": 0,
        "inputSensitivity": 0,
        "outputSaturation": 0
      },
      "pos": [
        113,
        2
      ]
    },
    {
      "id": 470,
      "plugin": "MM_Tools",
      "version": "1.0.2",
      "model": "SHEight",
      "params": [
        {
          "id": 0,
          "value": 120.0
        },
        {
          "id": 1,
          "value": 49.7499847
        },
        {
          "id": 2,
          "value": 100.0
        },
        {
          "id": 3,
          "value": 100.0
        },
        {
          "id": 4,
          "value": 100.0
        },
        {
          "id": 5,
          "value": 100.0
        },
        {
          "id": 6,
          "value": 100.0
        },
        {
          "id": 7,
          "value": 100.0
        },
        {
          "id": 8,
          "value": 100.0
        },
        {
          "id": 9,
          "value": 16.0
        },
        {
          "id": 10,
          "value": 1.0
        },
        {
          "id": 11,
          "value": 1.0
        },
        {
          "id": 12,
          "value": 1.0
        },
        {
          "id": 13,
          "value": 1.0
        },
        {
          "id": 14,
          "value": 1.0
        },
        {
          "id": 15,
          "value": 1.0
        },
        {
          "id": 16,
          "value": 1.0
        },
        {
          "id": 17,
          "value": -1.0
        },
        {
          "id": 18,
          "value": -5.0
        },
        {
          "id": 19,
          "value": -5.0
        },
        {
          "id": 20,
          "value": -5.0
        },
        {
          "id": 21,
          "value": -5.0
        },
        {
          "id": 22,
          "value": -5.0
        },
        {
          "id": 23,
          "value": -5.0
        },
        {
          "id": 24,
          "value": -5.0
        },
        {
          "id": 25,
          "value": 1.0
        },
        {
          "id": 26,
          "value": 5.0
        },
        {
          "id": 27,
          "value": 5.0
        },
        {
          "id": 28,
          "value": 5.0
        },
        {
          "id": 29,
          "value": 5.0
        },
        {
          "id": 30,
          "value": 5.0
        },
        {
          "id": 31,
          "value": 5.0
        },
        {
          "id": 32,
          "value": 5.0
        },
        {
          "id": 33,
          "value": 0.0
        },
        {
          "id": 34,
          "value": 0.0
        },
        {
          "id": 35,
          "value": 0.0
        },
        {
          "id": 36,
          "value": 0.0
        },
        {
          "id": 37,
          "value": 0.0
        },
        {
          "id": 38,
          "value": 0.0
        },
        {
          "id": 39,
          "value": 0.0
        },
        {
          "id": 40,
          "value": 0.0
        },
        {
          "id": 41,
          "value": 0.0
        }
      ],
      "leftModuleId": 469,
      "pos": [
        125,
        2
      ]
    },
    {
      "id": 472,
      "plugin": "Bogaudio",
      "version": "1.1.34",
      "model": "Bogaudio-AddrSeq",
      "params": [
        {
          "id": 0,
          "value": 8.0
        },
        {
          "id": 1,
          "value": 1.0
        },
        {
          "id": 2,
          "value": 0.0
        },
        {
          "id": 3,
          "value": 0.630497694
        },
        {
          "id": 4,
          "value": -0.0250762701
        },
        {
          "id": 5,
          "value": -0.793750405
        },
        {
          "id": 6,
          "value": -0.303088069
        },
        {
          "id": 7,
          "value": -0.241192222
        },
        {
          "id": 8,
          "value": -0.248702884
        },
        {
          "id": 9,
          "value": -0.0368777514
        },
        {
          "id": 10,
          "value": 0.999417782
        }
      ],
      "leftModuleId": 475,
      "rightModuleId": 473,
      "data": {
        "poly_input": 0,
        "select_on_clock": false,
        "triggered_select": false,
        "reverse_on_negative_clock": false,
        "range_offset": 0.0,
        "range_scale": 1.0
      },
      "pos": [
        53,
        3
      ]
    },
    {
      "id": 473,
      "plugin": "JW-Modules",
      "version": "1.0.14",
      "model": "Quantizer",
      "params": [
        {
          "id": 0,
          "value": 0.0
        },
        {
          "id": 1,
          "value": 14.0
        }
      ],
      "leftModuleId": 472,
      "data": {},
      "pos": [
        59,
        3
      ]
    },
    {
      "id": 475,
      "plugin": "Geodesics",
      "version": "1.2.0",
      "model": "Energy",
      "params": [
        {
          "id": 0,
          "value": 0.0
        },
        {
          "id": 1,
          "value": 0.0
        },
        {
          "id": 2,
          "value": 0.0
        },
        {
          "id": 3,
          "value": 0.0
        },
        {
          "id": 4,
          "value": 0.0
        },
        {
          "id": 5,
          "value": -2.0
        },
        {
          "id": 6,
          "value": 0.0
        },
        {
          "id": 7,
          "value": 0.330000043
        },
        {
          "id": 8,
          "value": 0.0
        },
        {
          "id": 9,
          "value": 0.0
        }
      ],
      "rightModuleId": 472,
      "data": {
        "panelTheme": 1,
        "oscM_phase": 3767589024,
        "oscC_phase": 2738999264,
        "osc1M_phase": 0,
        "osc1C_phase": 0,
        "osc2M_phase": 0,
        "osc2C_phase": 0,
        "osc3M_phase": 0,
        "osc3C_phase": 0,
        "osc4M_phase": 0,
        "osc4C_phase": 0,
        "osc5M_phase": 0,
        "osc5C_phase": 0,
        "osc6M_phase": 0,
        "osc6C_phase": 0,
        "osc7M_phase": 0,
        "osc7C_phase": 0,
        "osc8M_phase": 0,
        "osc8C_phase": 0,
        "osc9M_phase": 0,
        "osc9C_phase": 0,
        "osc10M_phase": 0,
        "osc10C_phase": 0,
        "osc11M_phase": 0,
        "osc11C_phase": 0,
        "osc12M_phase": 0,
        "osc12C_phase": 0,
        "osc13M_phase": 0,
        "osc13C_phase": 0,
        "osc14M_phase": 0,
        "osc14C_phase": 0,
        "osc15M_phase": 0,
        "osc15C_phase": 0,
        "routing": 1,
        "planck0": 0,
        "planck1": 0,
        "modtype0": 1,
        "modtype1": 1,
        "cross": 0
      },
      "pos": [
        46,
        3
      ]
    }
  ],
  "cables": [
    {
      "id": 9,
      "outputModuleId": 100,
      "outputId": 2,
      "inputModuleId": 1,
      "inputId": 0,
      "color": "#0c8e15"
    },
    {
      "id": 10,
      "outputModuleId": 100,
      "outputId": 3,
      "inputModuleId": 1,
      "inputId": 1,
      "color": "#c91847"
    },
    {
      "id": 6,
      "outputModuleId": 102,
      "outputId": 1,
      "inputModuleId": 101,
      "inputId": 1,
      "color": "#c91847"
    },
    {
      "id": 5,
      "outputModuleId": 102,
      "outputId": 0,
      "inputModuleId": 101,
      "inputId": 0,
      "color": "#0c8e15"
    },
    {
      "id": 8,
      "outputModuleId": 101,
      "outputId": 4,
      "inputModuleId": 102,
      "inputId": 1,
      "color": "#c9b70e"
    },
    {
      "id": 7,
      "outputModuleId": 101,
      "outputId": 0,
      "inputModuleId": 102,
      "inputId": 0,
      "color": "#0986ad"
    },
    {
      "id": 1372,
      "outputModuleId": 100,
      "outputId": 2,
      "inputModuleId": 395,
      "inputId": 0,
      "color": "#c91847"
    },
    {
      "id": 1373,
      "outputModuleId": 103,
      "outputId": 1,
      "inputModuleId": 399,
      "inputId": 0,
      "color": "#0986ad"
    },
    {
      "id": 1374,
      "outputModuleId": 399,
      "outputId": 0,
      "inputModuleId": 397,
      "inputId": 2,
      "color": "#0c8e15"
    },
    {
      "id": 1377,
      "outputModuleId": 397,
      "outputId": 0,
      "inputModuleId": 398,
      "inputId": 7,
      "color": "#0c8e15"
    },
    {
      "id": 1375,
      "outputModuleId": 398,
      "outputId": 0,
      "inputModuleId": 100,
      "inputId": 2,
      "color": "#c91847"
    },
    {
      "id": 1382,
      "outputModuleId": 401,
      "outputId": 2,
      "inputModuleId": 100,
      "inputId": 0,
      "color": "#0986ad"
    },
    {
      "id": 1399,
      "outputModuleId": 103,
      "outputId": 0,
      "inputModuleId": 407,
      "inputId": 0,
      "color": "#0986ad"
    },
    {
      "id": 1400,
      "outputModuleId": 407,
      "outputId": 0,
      "inputModuleId": 401,
      "inputId": 0,
      "color": "#c9b70e"
    },
    {
      "id": 1404,
      "outputModuleId": 400,
      "outputId": 0,
      "inputModuleId": 398,
      "inputId": 3,
      "color": "#0c8e15"
    },
    {
      "id": 1405,
      "outputModuleId": 411,
      "outputId": 0,
      "inputModuleId": 414,
      "inputId": 2,
      "color": "#c91847"
    },
    {
      "id": 1406,
      "outputModuleId": 414,
      "outputId": 0,
      "inputModuleId": 413,
      "inputId": 7,
      "color": "#0986ad"
    },
    {
      "id": 1409,
      "outputModuleId": 103,
      "outputId": 2,
      "inputModuleId": 411,
      "inputId": 0,
      "color": "#c91847"
    },
    {
      "id": 1412,
      "outputModuleId": 103,
      "outputId": 2,
      "inputModuleId": 413,
      "inputId": 5,
      "color": "#0c8e15"
    },
    {
      "id": 1413,
      "outputModuleId": 400,
      "outputId": 3,
      "inputModuleId": 413,
      "inputId": 3,
      "color": "#c91847"
    },
    {
      "id": 1417,
      "outputModuleId": 103,
      "outputId": 4,
      "inputModuleId": 411,
      "inputId": 1,
      "color": "#0986ad"
    },
    {
      "id": 1534,
      "outputModuleId": 413,
      "outputId": 0,
      "inputModuleId": 100,
      "inputId": 4,
      "color": "#0c8e15"
    },
    {
      "id": 1378,
      "outputModuleId": 399,
      "outputId": 3,
      "inputModuleId": 398,
      "inputId": 5,
      "color": "#c91847"
    },
    {
      "id": 1543,
      "outputModuleId": 469,
      "outputId": 0,
      "inputModuleId": 100,
      "inputId": 6,
      "color": "#0c8e15"
    },
    {
      "id": 1553,
      "outputModuleId": 469,
      "outputId": 1,
      "inputModuleId": 100,
      "inputId": 7,
      "color": "#0986ad"
    },
    {
      "id": 1554,
      "outputModuleId": 466,
      "outputId": 1,
      "inputModuleId": 469,
      "inputId": 0,
      "color": "#c9b70e"
    },
    {
      "id": 1550,
      "outputModuleId": 400,
      "outputId": 9,
      "inputModuleId": 466,
      "inputId": 3,
      "color": "#c9b70e"
    },
    {
      "id": 1556,
      "outputModuleId": 470,
      "outputId": 1,
      "inputModuleId": 100,
      "inputId": 29,
      "color": "#c91847"
    },
    {
      "id": 1559,
      "outputModuleId": 103,
      "outputId": 0,
      "inputModuleId": 470,
      "inputId": 0,
      "color": "#0c8e15"
    },
    {
      "id": 1563,
      "outputModuleId": 472,
      "outputId": 0,
      "inputModuleId": 473,
      "inputId": 2,
      "color": "#c91847"
    },
    {
      "id": 1562,
      "outputModuleId": 103,
      "outputId": 3,
      "inputModuleId": 472,
      "inputId": 0,
      "color": "#c9b70e"
    },
    {
      "id": 1566,
      "outputModuleId": 466,
      "outputId": 0,
      "inputModuleId": 470,
      "inputId": 1,
      "color": "#0c8e15"
    },
    {
      "id": 1564,
      "outputModuleId": 473,
      "outputId": 0,
      "inputModuleId": 475,
      "inputId": 2,
      "color": "#0986ad"
    },
    {
      "id": 1565,
      "outputModuleId": 475,
      "outputId": 0,
      "inputModuleId": 100,
      "inputId": 8,
      "color": "#c9b70e"
    }
  ]
}