{
  "version": "1.1.6",
  "modules": [
    {
      "id": 1,
      "plugin": "Core",
      "version": "1.1.6",
      "model": "AudioInterface",
      "params": [],
      "leftModuleId": 109,
      "rightModuleId": 111,
      "data": {
        "audio": {
          "driver": 4,
          "deviceName": "system",
          "offset": 0,
          "maxChannels": 8,
          "sampleRate": 44100,
          "blockSize": 256
        }
      },
      "pos": [
        44,
        0
      ]
    },
    {
      "id": 5,
      "plugin": "Core",
      "version": "1.1.6",
      "model": "MIDIToCVInterface",
      "params": [],
      "leftModuleId": 110,
      "rightModuleId": 109,
      "data": {
        "channels": 1,
        "polyMode": 0,
        "clockDivision": 24,
        "lastPitch": 8192,
        "lastMod": 0,
        "midi": {
          "driver": -11,
          "deviceName": "QWERTY keyboard (US)",
          "channel": -1
        }
      },
      "pos": [
        10,
        0
      ]
    },
    {
      "id": 109,
      "plugin": "AS",
      "version": "1.0.4",
      "model": "Mixer8ch",
      "params": [
        {
          "id": 0,
          "value": 0.800000012
        },
        {
          "id": 1,
          "value": 0.800000012
        },
        {
          "id": 2,
          "value": 0.800000012
        },
        {
          "id": 3,
          "value": 0.800000012
        },
        {
          "id": 4,
          "value": 0.800000012
        },
        {
          "id": 5,
          "value": 0.800000012
        },
        {
          "id": 6,
          "value": 0.800000012
        },
        {
          "id": 7,
          "value": 0.800000012
        },
        {
          "id": 8,
          "value": 0.800000012
        },
        {
          "id": 9,
          "value": 0.0
        },
        {
          "id": 10,
          "value": 0.0
        },
        {
          "id": 11,
          "value": 0.0
        },
        {
          "id": 12,
          "value": 0.0
        },
        {
          "id": 13,
          "value": 0.0
        },
        {
          "id": 14,
          "value": 0.0
        },
        {
          "id": 15,
          "value": 0.0
        },
        {
          "id": 16,
          "value": 0.0
        },
        {
          "id": 17,
          "value": 0.0
        },
        {
          "id": 18,
          "value": 0.0
        },
        {
          "id": 19,
          "value": 0.0
        },
        {
          "id": 20,
          "value": 0.0
        },
        {
          "id": 21,
          "value": 0.0
        },
        {
          "id": 22,
          "value": 0.0
        },
        {
          "id": 23,
          "value": 0.0
        },
        {
          "id": 24,
          "value": 0.0
        },
        {
          "id": 25,
          "value": 0.0
        }
      ],
      "leftModuleId": 5,
      "rightModuleId": 1,
      "data": {
        "as_MixerMutes": [
          0,
          0,
          0,
          0,
          0,
          0,
          0,
          0,
          0
        ]
      },
      "pos": [
        18,
        0
      ]
    },
    {
      "id": 110,
      "plugin": "RJModules",
      "version": "1.7.2",
      "model": "BPM",
      "params": [
        {
          "id": 0,
          "value": 0.0900001675
        },
        {
          "id": 1,
          "value": 0.0
        }
      ],
      "rightModuleId": 5,
      "pos": [
        0,
        0
      ]
    },
    {
      "id": 111,
      "plugin": "AudibleInstruments",
      "version": "1.3.0",
      "model": "Plaits",
      "params": [
        {
          "id": 0,
          "value": 0.0
        },
        {
          "id": 1,
          "value": 0.0
        },
        {
          "id": 2,
          "value": 0.479999512
        },
        {
          "id": 3,
          "value": 0.500999868
        },
        {
          "id": 4,
          "value": 0.401499838
        },
        {
          "id": 5,
          "value": 0.57400012
        },
        {
          "id": 6,
          "value": 0.345000088
        },
        {
          "id": 7,
          "value": 0.0
        },
        {
          "id": 8,
          "value": 0.0
        },
        {
          "id": 9,
          "value": 0.5
        },
        {
          "id": 10,
          "value": 0.5
        }
      ],
      "leftModuleId": 1,
      "rightModuleId": 114,
      "data": {
        "lowCpu": false,
        "model": 5
      },
      "pos": [
        54,
        0
      ]
    },
    {
      "id": 113,
      "plugin": "ML_modules",
      "version": "1.1.2",
      "model": "Quantum",
      "params": [
        {
          "id": 0,
          "value": 0.0
        },
        {
          "id": 1,
          "value": 0.0
        },
        {
          "id": 2,
          "value": 0.0
        },
        {
          "id": 3,
          "value": 0.0
        },
        {
          "id": 4,
          "value": 0.0
        },
        {
          "id": 5,
          "value": 0.0
        },
        {
          "id": 6,
          "value": 0.0
        },
        {
          "id": 7,
          "value": 0.0
        },
        {
          "id": 8,
          "value": 0.0
        },
        {
          "id": 9,
          "value": 0.0
        },
        {
          "id": 10,
          "value": 0.0
        },
        {
          "id": 11,
          "value": 0.0
        }
      ],
      "leftModuleId": 114,
      "data": {
        "scale": [
          0,
          0,
          0,
          1,
          0,
          0,
          0,
          0,
          1,
          0,
          0,
          0
        ],
        "mode": 1,
        "transpose_select": 1,
        "toggle_mode": 0
      },
      "pos": [
        82,
        0
      ]
    },
    {
      "id": 114,
      "plugin": "MM_Tools",
      "version": "1.0.2",
      "model": "SHEight",
      "params": [
        {
          "id": 0,
          "value": 120.0
        },
        {
          "id": 1,
          "value": 81.6999893
        },
        {
          "id": 2,
          "value": 100.0
        },
        {
          "id": 3,
          "value": 100.0
        },
        {
          "id": 4,
          "value": 100.0
        },
        {
          "id": 5,
          "value": 100.0
        },
        {
          "id": 6,
          "value": 100.0
        },
        {
          "id": 7,
          "value": 100.0
        },
        {
          "id": 8,
          "value": 100.0
        },
        {
          "id": 9,
          "value": 1.0
        },
        {
          "id": 10,
          "value": 1.0
        },
        {
          "id": 11,
          "value": 1.0
        },
        {
          "id": 12,
          "value": 1.0
        },
        {
          "id": 13,
          "value": 1.0
        },
        {
          "id": 14,
          "value": 1.0
        },
        {
          "id": 15,
          "value": 1.0
        },
        {
          "id": 16,
          "value": 1.0
        },
        {
          "id": 17,
          "value": -5.36999989
        },
        {
          "id": 18,
          "value": -0.394999862
        },
        {
          "id": 19,
          "value": -5.0
        },
        {
          "id": 20,
          "value": -5.0
        },
        {
          "id": 21,
          "value": -5.0
        },
        {
          "id": 22,
          "value": -5.0
        },
        {
          "id": 23,
          "value": -5.0
        },
        {
          "id": 24,
          "value": -5.0
        },
        {
          "id": 25,
          "value": 3.86000109
        },
        {
          "id": 26,
          "value": 4.44500065
        },
        {
          "id": 27,
          "value": 5.0
        },
        {
          "id": 28,
          "value": 5.0
        },
        {
          "id": 29,
          "value": 5.0
        },
        {
          "id": 30,
          "value": 5.0
        },
        {
          "id": 31,
          "value": 5.0
        },
        {
          "id": 32,
          "value": 5.0
        },
        {
          "id": 33,
          "value": 0.0
        },
        {
          "id": 34,
          "value": 0.0
        },
        {
          "id": 35,
          "value": 0.0
        },
        {
          "id": 36,
          "value": 0.0
        },
        {
          "id": 37,
          "value": 0.0
        },
        {
          "id": 38,
          "value": 0.0
        },
        {
          "id": 39,
          "value": 0.0
        },
        {
          "id": 40,
          "value": 0.0
        },
        {
          "id": 41,
          "value": 0.0
        }
      ],
      "leftModuleId": 111,
      "rightModuleId": 113,
      "pos": [
        66,
        0
      ]
    },
    {
      "id": 117,
      "plugin": "AudibleInstruments",
      "version": "1.3.0",
      "model": "Ripples",
      "params": [
        {
          "id": 0,
          "value": 0.309000194
        },
        {
          "id": 1,
          "value": 9.65362263
        },
        {
          "id": 2,
          "value": 0.311999917
        }
      ],
      "pos": [
        56,
        1
      ]
    }
  ],
  "cables": [
    {
      "id": 846,
      "outputModuleId": 109,
      "outputId": 0,
      "inputModuleId": 1,
      "inputId": 0,
      "color": "#c9b70e"
    },
    {
      "id": 847,
      "outputModuleId": 109,
      "outputId": 1,
      "inputModuleId": 1,
      "inputId": 1,
      "color": "#0c8e15"
    },
    {
      "id": 853,
      "outputModuleId": 114,
      "outputId": 1,
      "inputModuleId": 113,
      "inputId": 0,
      "color": "#c91847"
    },
    {
      "id": 854,
      "outputModuleId": 113,
      "outputId": 0,
      "inputModuleId": 111,
      "inputId": 7,
      "color": "#c9b70e"
    },
    {
      "id": 856,
      "outputModuleId": 110,
      "outputId": 0,
      "inputModuleId": 114,
      "inputId": 0,
      "color": "#c91847"
    },
    {
      "id": 863,
      "outputModuleId": 111,
      "outputId": 0,
      "inputModuleId": 117,
      "inputId": 3,
      "color": "#0986ad"
    },
    {
      "id": 864,
      "outputModuleId": 117,
      "outputId": 0,
      "inputModuleId": 109,
      "inputId": 1,
      "color": "#c9b70e"
    },
    {
      "id": 865,
      "outputModuleId": 117,
      "outputId": 1,
      "inputModuleId": 111,
      "inputId": 1,
      "color": "#0c8e15"
    }
  ]
}