{
  "version": "1.1.6",
  "modules": [
    {
      "id": 1,
      "plugin": "Core",
      "version": "1.1.6",
      "model": "AudioInterface",
      "params": [],
      "leftModuleId": 2,
      "data": {
        "audio": {
          "driver": 4,
          "deviceName": "system",
          "offset": 0,
          "maxChannels": 8,
          "sampleRate": 44100,
          "blockSize": 256
        }
      },
      "pos": [
        79,
        0
      ]
    },
    {
      "id": 2,
      "plugin": "Fundamental",
      "version": "1.4.0",
      "model": "VCMixer",
      "params": [
        {
          "id": 0,
          "value": 1.0
        },
        {
          "id": 1,
          "value": 1.40148664
        },
        {
          "id": 2,
          "value": 1.39300084
        },
        {
          "id": 3,
          "value": 1.0
        },
        {
          "id": 4,
          "value": 1.0
        }
      ],
      "leftModuleId": 7,
      "rightModuleId": 1,
      "pos": [
        69,
        0
      ]
    },
    {
      "id": 5,
      "plugin": "Core",
      "version": "1.1.6",
      "model": "MIDIToCVInterface",
      "params": [],
      "data": {
        "channels": 1,
        "polyMode": 0,
        "clockDivision": 24,
        "lastPitch": 8192,
        "lastMod": 0,
        "midi": {
          "driver": -11,
          "deviceName": "QWERTY keyboard (US)",
          "channel": -1
        }
      },
      "pos": [
        0,
        0
      ]
    },
    {
      "id": 7,
      "plugin": "Fundamental",
      "version": "1.4.0",
      "model": "Scope",
      "params": [
        {
          "id": 0,
          "value": 0.0
        },
        {
          "id": 1,
          "value": 0.0
        },
        {
          "id": 2,
          "value": 0.0
        },
        {
          "id": 3,
          "value": 0.0
        },
        {
          "id": 4,
          "value": 14.0
        },
        {
          "id": 5,
          "value": 0.0
        },
        {
          "id": 6,
          "value": 0.0
        },
        {
          "id": 7,
          "value": 0.0
        }
      ],
      "leftModuleId": 46,
      "rightModuleId": 2,
      "data": {
        "lissajous": 0,
        "external": 0
      },
      "pos": [
        56,
        0
      ]
    },
    {
      "id": 46,
      "plugin": "AudibleInstruments",
      "version": "1.3.1",
      "model": "Clouds",
      "params": [
        {
          "id": 0,
          "value": 0.0
        },
        {
          "id": 1,
          "value": 0.0
        },
        {
          "id": 2,
          "value": 0.0
        },
        {
          "id": 3,
          "value": 0.703999996
        },
        {
          "id": 4,
          "value": 0.728500009
        },
        {
          "id": 5,
          "value": 1.00399888
        },
        {
          "id": 6,
          "value": 0.899000049
        },
        {
          "id": 7,
          "value": 0.900999844
        },
        {
          "id": 8,
          "value": 0.563000023
        },
        {
          "id": 9,
          "value": 2.7975513e-16
        },
        {
          "id": 10,
          "value": 0.563499987
        },
        {
          "id": 11,
          "value": 0.617998838
        },
        {
          "id": 12,
          "value": 0.817500234
        }
      ],
      "leftModuleId": 49,
      "rightModuleId": 7,
      "data": {
        "playback": 1,
        "quality": 0,
        "blendMode": 0
      },
      "pos": [
        38,
        0
      ]
    },
    {
      "id": 49,
      "plugin": "AudibleInstruments",
      "version": "1.3.1",
      "model": "Tides2",
      "params": [
        {
          "id": 0,
          "value": 0.0
        },
        {
          "id": 1,
          "value": 0.0
        },
        {
          "id": 2,
          "value": 0.0
        },
        {
          "id": 3,
          "value": 23.1839867
        },
        {
          "id": 4,
          "value": 0.345500141
        },
        {
          "id": 5,
          "value": 0.287000477
        },
        {
          "id": 6,
          "value": 0.0
        },
        {
          "id": 7,
          "value": 0.596000314
        },
        {
          "id": 8,
          "value": 0.302999943
        },
        {
          "id": 9,
          "value": 0.525000095
        },
        {
          "id": 10,
          "value": 0.333000034
        },
        {
          "id": 11,
          "value": 0.137999997
        },
        {
          "id": 12,
          "value": 0.447000027
        }
      ],
      "leftModuleId": 50,
      "rightModuleId": 46,
      "data": {
        "range": 1,
        "output": 2,
        "ramp": 1
      },
      "pos": [
        24,
        0
      ]
    },
    {
      "id": 50,
      "plugin": "AudibleInstruments",
      "version": "1.3.1",
      "model": "Plaits",
      "params": [
        {
          "id": 0,
          "value": 0.0
        },
        {
          "id": 1,
          "value": 0.0
        },
        {
          "id": 2,
          "value": -1.87199998
        },
        {
          "id": 3,
          "value": 0.609500766
        },
        {
          "id": 4,
          "value": 0.82400167
        },
        {
          "id": 5,
          "value": 0.596000195
        },
        {
          "id": 6,
          "value": 0.0
        },
        {
          "id": 7,
          "value": 0.0
        },
        {
          "id": 8,
          "value": 0.0
        },
        {
          "id": 9,
          "value": 0.5
        },
        {
          "id": 10,
          "value": 0.5
        }
      ],
      "rightModuleId": 49,
      "data": {
        "lowCpu": false,
        "model": 0
      },
      "pos": [
        12,
        0
      ]
    }
  ],
  "cables": [
    {
      "id": 301,
      "outputModuleId": 2,
      "outputId": 0,
      "inputModuleId": 1,
      "inputId": 0,
      "color": "#0986ad"
    },
    {
      "id": 302,
      "outputModuleId": 2,
      "outputId": 0,
      "inputModuleId": 1,
      "inputId": 1,
      "color": "#c9b70e"
    },
    {
      "id": 307,
      "outputModuleId": 2,
      "outputId": 1,
      "inputModuleId": 7,
      "inputId": 0,
      "color": "#c9b70e"
    },
    {
      "id": 509,
      "outputModuleId": 46,
      "outputId": 0,
      "inputModuleId": 2,
      "inputId": 1,
      "color": "#0986ad"
    },
    {
      "id": 510,
      "outputModuleId": 46,
      "outputId": 1,
      "inputModuleId": 2,
      "inputId": 2,
      "color": "#c9b70e"
    },
    {
      "id": 517,
      "outputModuleId": 50,
      "outputId": 0,
      "inputModuleId": 46,
      "inputId": 6,
      "color": "#c91847"
    },
    {
      "id": 518,
      "outputModuleId": 50,
      "outputId": 0,
      "inputModuleId": 46,
      "inputId": 7,
      "color": "#0986ad"
    },
    {
      "id": 528,
      "outputModuleId": 49,
      "outputId": 1,
      "inputModuleId": 50,
      "inputId": 1,
      "color": "#c91847"
    },
    {
      "id": 530,
      "outputModuleId": 49,
      "outputId": 3,
      "inputModuleId": 50,
      "inputId": 5,
      "color": "#c9b70e"
    },
    {
      "id": 529,
      "outputModuleId": 49,
      "outputId": 1,
      "inputModuleId": 49,
      "inputId": 1,
      "color": "#0986ad"
    }
  ]
}