{
  "version": "1.1.6",
  "modules": [
    {
      "id": 0,
      "plugin": "Core",
      "version": "1.1.6",
      "model": "AudioInterface",
      "params": [],
      "leftModuleId": 3,
      "data": {
        "audio": {
          "driver": 1,
          "deviceName": "default",
          "offset": 0,
          "maxChannels": 8,
          "sampleRate": 44100,
          "blockSize": 256
        }
      },
      "pos": [
        65,
        0
      ]
    },
    {
      "id": 3,
      "plugin": "AudibleInstruments",
      "version": "1.3.0",
      "model": "Elements",
      "params": [
        {
          "id": 0,
          "value": 0.510000169
        },
        {
          "id": 1,
          "value": 0.339000762
        },
        {
          "id": 2,
          "value": 0.642000496
        },
        {
          "id": 3,
          "value": 0.796999395
        },
        {
          "id": 4,
          "value": -9.20998955
        },
        {
          "id": 5,
          "value": -2.0
        },
        {
          "id": 6,
          "value": 0.0510002151
        },
        {
          "id": 7,
          "value": 0.436501205
        },
        {
          "id": 8,
          "value": 0.456000686
        },
        {
          "id": 9,
          "value": 0.285999924
        },
        {
          "id": 10,
          "value": 0.421500117
        },
        {
          "id": 11,
          "value": 0.497999877
        },
        {
          "id": 12,
          "value": 0.576000035
        },
        {
          "id": 13,
          "value": 0.517499983
        },
        {
          "id": 14,
          "value": 0.546502352
        },
        {
          "id": 15,
          "value": 0.750999808
        },
        {
          "id": 16,
          "value": 0.156000018
        },
        {
          "id": 17,
          "value": -0.448000073
        },
        {
          "id": 18,
          "value": 0.254999906
        },
        {
          "id": 19,
          "value": -0.398999989
        },
        {
          "id": 20,
          "value": 0.384000033
        },
        {
          "id": 21,
          "value": 0.462000012
        },
        {
          "id": 22,
          "value": 0.452999979
        },
        {
          "id": 23,
          "value": -0.447000057
        },
        {
          "id": 24,
          "value": 0.323999971
        },
        {
          "id": 25,
          "value": 0.338999987
        },
        {
          "id": 26,
          "value": -0.887999952
        },
        {
          "id": 27,
          "value": 0.0
        }
      ],
      "leftModuleId": 8,
      "rightModuleId": 0,
      "data": {
        "model": 0
      },
      "pos": [
        31,
        0
      ]
    },
    {
      "id": 4,
      "plugin": "Core",
      "version": "1.1.6",
      "model": "MIDIToCVInterface",
      "params": [],
      "rightModuleId": 10,
      "data": {
        "channels": 1,
        "polyMode": 0,
        "clockDivision": 24,
        "lastPitch": 8192,
        "lastMod": 0,
        "midi": {
          "driver": -11,
          "deviceName": "QWERTY keyboard (US)",
          "channel": -1
        }
      },
      "pos": [
        0,
        0
      ]
    },
    {
      "id": 8,
      "plugin": "AudibleInstruments",
      "version": "1.3.0",
      "model": "Tides",
      "params": [
        {
          "id": 0,
          "value": 0.0
        },
        {
          "id": 1,
          "value": 0.0
        },
        {
          "id": 2,
          "value": -14.8320084
        },
        {
          "id": 3,
          "value": 1.29600286
        },
        {
          "id": 4,
          "value": 0.998000085
        },
        {
          "id": 5,
          "value": -0.191999942
        },
        {
          "id": 6,
          "value": 0.209000036
        }
      ],
      "leftModuleId": 10,
      "rightModuleId": 3,
      "data": {
        "mode": 1,
        "range": 1,
        "sheep": false
      },
      "pos": [
        17,
        0
      ]
    },
    {
      "id": 10,
      "plugin": "AmalgamatedHarmonics",
      "version": "1.0.4",
      "model": "Arp32",
      "params": [
        {
          "id": 0,
          "value": 3.0
        },
        {
          "id": 1,
          "value": 8.0
        },
        {
          "id": 2,
          "value": -8.0
        },
        {
          "id": 3,
          "value": 0.0
        },
        {
          "id": 4,
          "value": 7.0
        }
      ],
      "leftModuleId": 4,
      "rightModuleId": 8,
      "data": {
        "gateMode": 0,
        "repeatMode": false
      },
      "pos": [
        8,
        0
      ]
    }
  ],
  "cables": [
    {
      "id": 25,
      "outputModuleId": 3,
      "outputId": 1,
      "inputModuleId": 0,
      "inputId": 1,
      "color": "#c9b70e"
    },
    {
      "id": 26,
      "outputModuleId": 3,
      "outputId": 0,
      "inputModuleId": 0,
      "inputId": 0,
      "color": "#0c8e15"
    },
    {
      "id": 75,
      "outputModuleId": 10,
      "outputId": 1,
      "inputModuleId": 3,
      "inputId": 2,
      "color": "#c9b70e"
    },
    {
      "id": 77,
      "outputModuleId": 10,
      "outputId": 0,
      "inputModuleId": 3,
      "inputId": 0,
      "color": "#0986ad"
    },
    {
      "id": 84,
      "outputModuleId": 4,
      "outputId": 0,
      "inputModuleId": 10,
      "inputId": 1,
      "color": "#0c8e15"
    },
    {
      "id": 71,
      "outputModuleId": 8,
      "outputId": 0,
      "inputModuleId": 10,
      "inputId": 0,
      "color": "#c91847"
    },
    {
      "id": 86,
      "outputModuleId": 8,
      "outputId": 1,
      "inputModuleId": 3,
      "inputId": 3,
      "color": "#0986ad"
    }
  ]
}