{
  "version": "1.1.6",
  "modules": [
    {
      "id": 1,
      "plugin": "Core",
      "version": "1.1.6",
      "model": "AudioInterface",
      "params": [],
      "leftModuleId": 2,
      "data": {
        "audio": {
          "driver": 4,
          "offset": 0,
          "maxChannels": 8,
          "sampleRate": 44100,
          "blockSize": 256
        }
      },
      "pos": [
        51,
        1
      ]
    },
    {
      "id": 2,
      "plugin": "Fundamental",
      "version": "1.4.0",
      "model": "VCMixer",
      "params": [
        {
          "id": 0,
          "value": 1.0
        },
        {
          "id": 1,
          "value": 1.0
        },
        {
          "id": 2,
          "value": 1.0
        },
        {
          "id": 3,
          "value": 1.0
        },
        {
          "id": 4,
          "value": 1.0
        }
      ],
      "rightModuleId": 1,
      "pos": [
        41,
        1
      ]
    },
    {
      "id": 5,
      "plugin": "Core",
      "version": "1.1.6",
      "model": "MIDIToCVInterface",
      "params": [],
      "data": {
        "channels": 1,
        "polyMode": 0,
        "clockDivision": 24,
        "lastPitch": 8192,
        "lastMod": 0,
        "midi": {
          "driver": -11,
          "deviceName": "QWERTY keyboard (US)",
          "channel": -1
        }
      },
      "pos": [
        0,
        0
      ]
    },
    {
      "id": 67,
      "plugin": "AudibleInstruments",
      "version": "1.3.1",
      "model": "Tides",
      "params": [
        {
          "id": 0,
          "value": 0.0
        },
        {
          "id": 1,
          "value": 0.0
        },
        {
          "id": 2,
          "value": -34.6080055
        },
        {
          "id": 3,
          "value": 0.0
        },
        {
          "id": 4,
          "value": 0.240000233
        },
        {
          "id": 5,
          "value": -0.219000131
        },
        {
          "id": 6,
          "value": 0.207000002
        }
      ],
      "rightModuleId": 68,
      "data": {
        "mode": 1,
        "range": 1,
        "sheep": false
      },
      "pos": [
        0,
        1
      ]
    },
    {
      "id": 68,
      "plugin": "AudibleInstruments",
      "version": "1.3.1",
      "model": "Plaits",
      "params": [
        {
          "id": 0,
          "value": 0.0
        },
        {
          "id": 1,
          "value": 0.0
        },
        {
          "id": 2,
          "value": 1.12800014
        },
        {
          "id": 3,
          "value": 0.633500278
        },
        {
          "id": 4,
          "value": 0.5
        },
        {
          "id": 5,
          "value": 0.5
        },
        {
          "id": 6,
          "value": 0.480000019
        },
        {
          "id": 7,
          "value": -0.00299993483
        },
        {
          "id": 8,
          "value": 0.396000028
        },
        {
          "id": 9,
          "value": 0.5
        },
        {
          "id": 10,
          "value": 0.5
        }
      ],
      "leftModuleId": 67,
      "data": {
        "lowCpu": false,
        "model": 0
      },
      "pos": [
        14,
        1
      ]
    }
  ],
  "cables": [
    {
      "id": 580,
      "outputModuleId": 2,
      "outputId": 0,
      "inputModuleId": 1,
      "inputId": 0,
      "color": "#0986ad"
    },
    {
      "id": 581,
      "outputModuleId": 2,
      "outputId": 0,
      "inputModuleId": 1,
      "inputId": 1,
      "color": "#c9b70e"
    },
    {
      "id": 597,
      "outputModuleId": 68,
      "outputId": 0,
      "inputModuleId": 2,
      "inputId": 1,
      "color": "#0986ad"
    },
    {
      "id": 598,
      "outputModuleId": 68,
      "outputId": 0,
      "inputModuleId": 2,
      "inputId": 2,
      "color": "#c9b70e"
    },
    {
      "id": 596,
      "outputModuleId": 67,
      "outputId": 3,
      "inputModuleId": 67,
      "inputId": 2,
      "color": "#0c8e15"
    },
    {
      "id": 604,
      "outputModuleId": 67,
      "outputId": 0,
      "inputModuleId": 67,
      "inputId": 6,
      "color": "#c91847"
    },
    {
      "id": 601,
      "outputModuleId": 67,
      "outputId": 1,
      "inputModuleId": 68,
      "inputId": 1,
      "color": "#0986ad"
    },
    {
      "id": 605,
      "outputModuleId": 67,
      "outputId": 0,
      "inputModuleId": 68,
      "inputId": 5,
      "color": "#0986ad"
    },
    {
      "id": 606,
      "outputModuleId": 67,
      "outputId": 2,
      "inputModuleId": 67,
      "inputId": 7,
      "color": "#c9b70e"
    }
  ]
}